<svg id="logo-white" xmlns="http://www.w3.org/2000/svg" xmlns:xlink="http://www.w3.org/1999/xlink" width="90" height="38.082" viewBox="0 0 90 38.082">
  <defs>
    <clipPath id="clip-path">
      <rect id="사각형_1" data-name="사각형 1" width="90" height="38.082" fill="none"/>
    </clipPath>
  </defs>
  <g id="그룹_1" data-name="그룹 1" clip-path="url(#clip-path)">
    <path id="패스_1" data-name="패스 1" d="M22.038,31.427l-7.314-8.981L25.342,9.374H19.551a7.134,7.134,0,0,0-5.959,2.641L8,18.894V0H2.387A2.39,2.39,0,0,0,0,2.394V37.648H5.608A2.388,2.388,0,0,0,8,35.256V25.877l4.548,5.573,3.862,4.759a3.6,3.6,0,0,0,2.857,1.439H27.1Z" transform="translate(0 0.001)" fill="#fff"/>
    <path id="패스_2" data-name="패스 2" d="M24.287,37.648a6.971,6.971,0,0,1-7.309-7.305V2.391A2.394,2.394,0,0,1,19.377,0H24.99V28.842a2.151,2.151,0,0,0,2.144,2.15h5.717v4.263a2.394,2.394,0,0,1-2.4,2.392Z" transform="translate(12.137 0.001)" fill="#fff"/>
    <path id="패스_3" data-name="패스 3" d="M5.112,14.885l.01-.012-.017.012ZM42.493,4.254,42,4.772c-.031.01-1.525,1.547-5.846,1.547h-20.4a6.81,6.81,0,0,0-5.9,2.732l-.641.787c-.017.022-.033.034-.048.055l-4.049,4.98A9.385,9.385,0,0,1,10.673,13.1H36.158c3.1,0,6.062-.917,6.307-3.231a1.524,1.524,0,0,0,.027-.3Z" transform="translate(3.649 3.042)" fill="#e50019"/>
    <path id="패스_4" data-name="패스 4" d="M32.684,20.22c0-7.619,4.351-11.052,10.886-11.052a17.616,17.616,0,0,0,4.853-.461V12.39c0,.923-1.715,1.218-4.479,1.218-4.565,0-6.239,2.258-6.239,6.654,0,4.771,1.674,7.16,5.107,7.16a14.557,14.557,0,0,0,6.448-1.214v3.433a1.384,1.384,0,0,1-.878,1.3,15.513,15.513,0,0,1-5.4.919c-7.748,0-10.3-4.4-10.3-11.637" transform="translate(23.365 6.224)" fill="#e50019"/>
    <path id="패스_5" data-name="패스 5" d="M44.842,30.727a1.852,1.852,0,0,1-.881-1.423l.045-3.138A14.337,14.337,0,0,0,50.2,27.5c2.428,0,3.349-1,3.349-2.262,0-1.212-.506-2.051-2.137-2.636l-2.133-.755c-3.1-1.089-5.191-2.847-5.191-6.489,0-4.563,3.221-6.2,8.2-6.2a15.77,15.77,0,0,0,4.772-.461V12.39c0,.881-2.01,1.132-4.558,1.132-2.265,0-3.394.5-3.394,1.926,0,.919.376,1.631,1.84,2.135l2.092.712c3.1,1.049,5.53,2.929,5.53,6.738,0,4.315-2.473,6.825-8.624,6.825a11.77,11.77,0,0,1-5.109-1.13" transform="translate(31.427 6.224)" fill="#e50019"/>
  </g>
</svg>
