<svg xmlns="http://www.w3.org/2000/svg" width="90" height="38.082" viewBox="0 0 90 38.082">
  <g id="basic" transform="translate(45 19.041)">
    <g id="그룹_63385" data-name="그룹 63385" transform="translate(-45 -19.041)">
      <g id="그룹_63382" data-name="그룹 63382">
        <g id="그룹_63381" data-name="그룹 63381">
          <path id="패스_23495" data-name="패스 23495" d="M22.038,31.427l-7.312-8.983L25.342,9.372H19.551a7.133,7.133,0,0,0-5.957,2.641L8,18.894V0H2.387A2.39,2.39,0,0,0,0,2.394V37.648H5.608A2.388,2.388,0,0,0,8,35.256v-9.38l4.548,5.573,3.862,4.759a3.6,3.6,0,0,0,2.857,1.44H27.1Z" fill="#1a1818"/>
          <path id="패스_23496" data-name="패스 23496" d="M24.287,37.648a6.973,6.973,0,0,1-7.309-7.307V2.391A2.393,2.393,0,0,1,19.377,0H24.99V28.841a2.153,2.153,0,0,0,2.144,2.152h5.717v4.263a2.394,2.394,0,0,1-2.4,2.392Z" transform="translate(12.137)" fill="#1a1818"/>
          <path id="패스_23497" data-name="패스 23497" d="M5.112,14.886l.01-.012-.017.012ZM42.493,4.254,42,4.774c-.031.009-1.525,1.545-5.846,1.545h-20.4a6.813,6.813,0,0,0-5.9,2.734l-.641.787c-.017.021-.033.033-.048.053L5.122,14.874A9.377,9.377,0,0,1,10.673,13.1H36.158c3.1,0,6.062-.919,6.309-3.233a1.576,1.576,0,0,0,.026-.3Z" transform="translate(3.649 3.041)" fill="#e50019"/>
        </g>
      </g>
      <g id="그룹_63384" data-name="그룹 63384" transform="translate(56.049 14.93)">
        <g id="그룹_63383" data-name="그룹 63383">
          <path id="패스_23498" data-name="패스 23498" d="M32.684,20.22c0-7.617,4.351-11.051,10.884-11.051a17.6,17.6,0,0,0,4.853-.463V12.39c0,.924-1.715,1.218-4.478,1.218-4.565,0-6.24,2.258-6.24,6.655,0,4.771,1.675,7.158,5.109,7.158a14.587,14.587,0,0,0,6.448-1.212v3.433a1.382,1.382,0,0,1-.878,1.3,15.481,15.481,0,0,1-5.4.921C35.236,31.859,32.684,27.462,32.684,20.22Z" transform="translate(-32.684 -8.706)" fill="#e50019"/>
          <path id="패스_23499" data-name="패스 23499" d="M44.842,30.727a1.848,1.848,0,0,1-.881-1.422L44,26.165A14.35,14.35,0,0,0,50.2,27.5c2.428,0,3.349-1,3.349-2.26,0-1.214-.506-2.053-2.137-2.637l-2.135-.755c-3.1-1.089-5.191-2.847-5.191-6.489,0-4.563,3.222-6.194,8.2-6.194a15.752,15.752,0,0,0,4.772-.463V12.39c0,.881-2.008,1.132-4.558,1.132-2.264,0-3.392.5-3.392,1.926,0,.919.376,1.631,1.838,2.137l2.094.71c3.1,1.05,5.529,2.929,5.529,6.739,0,4.313-2.471,6.825-8.624,6.825A11.762,11.762,0,0,1,44.842,30.727Z" transform="translate(-24.622 -8.706)" fill="#e50019"/>
        </g>
      </g>
    </g>
  </g>
</svg>
