<svg xmlns="http://www.w3.org/2000/svg" xmlns:xlink="http://www.w3.org/1999/xlink" width="116.482" height="49.288" viewBox="0 0 116.482 49.288">
  <defs>
    <clipPath id="clip-path">
      <rect id="사각형_76" data-name="사각형 76" width="116.482" height="49.288" fill="none"/>
    </clipPath>
  </defs>
  <g id="logo" transform="translate(-30)">
    <g id="그룹_6" data-name="그룹 6" transform="translate(30)" clip-path="url(#clip-path)">
      <path id="패스_9" data-name="패스 9" d="M19.061,29.046l6.112-7.52H18.018A10.6,10.6,0,0,0,10.9,23.79l-.546.664V0H3.094A3.1,3.1,0,0,0,0,3.094V48.726H7.267a3.1,3.1,0,0,0,3.083-3.105V33.485l5.888,7.222,5,6.157a4.66,4.66,0,0,0,3.7,1.86h10.13l-6.55-8.041Zm28.984,8.276v-15.8H37.684V39.269a9.015,9.015,0,0,0,9.462,9.457h7.97a3.11,3.11,0,0,0,3.1-3.105V40.11H50.824a2.786,2.786,0,0,1-2.779-2.788m11.9-21.371,0-6.874-.641.675c-.02.02-1.966,2-7.553,2h-3.7V0H40.778a3.1,3.1,0,0,0-3.094,3.094v8.66H25.344a8.829,8.829,0,0,0-7.626,3.527l-6.061,7.475a11.14,11.14,0,0,1,7.069-2.714H51.747c3.618,0,6.092-.706,7.369-2.1a2.827,2.827,0,0,0,.828-1.989" transform="translate(0 0.001)" fill="#bcbcbc"/>
      <path id="패스_10" data-name="패스 10" d="M32.684,23.607c0-9.861,5.631-14.3,14.089-14.3,2.162,0,5.089-.109,6.281-.6v4.767c0,1.194-2.219,1.576-5.8,1.576-5.908,0-8.074,2.923-8.074,8.612,0,6.175,2.166,9.266,6.61,9.266a18.841,18.841,0,0,0,8.345-1.571V35.8A1.792,1.792,0,0,1,53,37.479c-1.2.7-4.932,1.19-6.987,1.19-10.028,0-13.33-5.688-13.33-15.061" transform="translate(39.857 10.618)" fill="#bcbcbc"/>
      <path id="패스_11" data-name="패스 11" d="M45.1,37.206a2.4,2.4,0,0,1-1.141-1.842l.058-4.062a18.555,18.555,0,0,0,8.019,1.733c3.143,0,4.335-1.3,4.335-2.927,0-1.569-.655-2.654-2.765-3.411l-2.761-.977c-4.011-1.409-6.718-3.684-6.718-8.4,0-5.906,4.168-8.019,10.616-8.019,2.548,0,4.989-.109,6.177-.6v4.767c0,1.141-2.6,1.465-5.9,1.465-2.932,0-4.392.65-4.392,2.492,0,1.19.486,2.111,2.381,2.763l2.708.921c4.015,1.358,7.158,3.791,7.158,8.72,0,5.584-3.2,8.833-11.164,8.833a15.231,15.231,0,0,1-6.61-1.463" transform="translate(53.609 10.618)" fill="#bcbcbc"/>
    </g>
  </g>
</svg>
